<svg width="22" height="22" viewBox="0 0 22 22" fill="none" xmlns="http://www.w3.org/2000/svg">
<path fill-rule="evenodd" clip-rule="evenodd" d="M19.0887 8.18593L21.8811 5.39142C21.9247 5.34894 21.9579 5.29687 21.978 5.23933C21.9981 5.18179 22.0045 5.12035 21.9968 5.05988C21.9888 4.999 21.9669 4.94077 21.9331 4.88957C21.8992 4.83838 21.8541 4.79559 21.8013 4.7644L14.2707 0.409675C14.1948 0.366189 14.1067 0.349153 14.02 0.361177C13.9334 0.3732 13.8532 0.413646 13.792 0.476165L10.9996 3.26925L8.20728 0.476856C8.14585 0.414213 8.06547 0.373668 7.97863 0.361522C7.8918 0.349375 7.80339 0.366286 7.72718 0.409675L0.198017 4.7644C0.144437 4.79455 0.0988486 4.83713 0.0650684 4.88854C0.0312883 4.93995 0.0102991 4.99868 0.00385776 5.05988C-0.00445368 5.12001 0.00115661 5.18124 0.0202549 5.23885C0.0393532 5.29647 0.0714278 5.34894 0.113999 5.39216L2.90778 8.18593L0.113999 10.9833C0.0712935 11.0264 0.0391295 11.0788 0.0200224 11.1365C0.000915282 11.1941 -0.00461714 11.2554 0.00385776 11.3155C0.0111108 11.376 0.0324612 11.434 0.0661872 11.4847C0.0999131 11.5354 0.145071 11.5775 0.198017 11.6075L3.07017 13.2702V16.8904C3.07017 17.0339 3.14783 17.164 3.26856 17.2354L10.8005 21.5901C10.8605 21.6257 10.9292 21.6438 10.9989 21.6424C11.0686 21.6435 11.1372 21.6254 11.1973 21.5901L18.7265 17.2354C18.7867 17.2002 18.8367 17.1498 18.8715 17.0893C18.9063 17.0288 18.9247 16.9602 18.9249 16.8904V13.2709L21.7999 11.6075C21.8522 11.5764 21.897 11.534 21.9308 11.4834C21.9647 11.4327 21.9867 11.3751 21.9954 11.3148C22.0033 11.2544 21.9969 11.1929 21.9768 11.1353C21.9567 11.0777 21.9234 11.0257 21.8796 10.9833L19.0887 8.18593ZM17.7317 8.18593L10.9996 12.0797L4.26478 8.18593L9.31434 5.26703L10.9996 4.295L17.0892 7.81339L17.7317 8.18593ZM14.138 1.25235L20.954 5.19704L18.4624 7.68895L18.0543 7.45285L11.645 3.74853L14.138 1.25308V1.25235ZM7.86132 1.25235L10.3536 3.74853L3.53474 7.68895L1.04244 5.19704L7.86132 1.25235ZM3.53474 8.68291L10.3508 12.6262L7.8592 15.1181L3.66606 12.6948H3.66465L1.04173 11.1777L3.53474 8.68291ZM3.86446 13.7304L7.72647 15.9608C7.78628 15.9963 7.85461 16.0149 7.92416 16.0145C7.93263 16.0145 7.93828 16.0046 7.94746 16.0046C8.04345 16.0035 8.13548 15.9661 8.20516 15.9L10.6021 13.5V20.558L3.86446 16.6599V13.7304ZM18.1299 16.6614L11.3964 20.5551V13.5007L13.7906 15.9007C13.8612 15.9714 13.953 15.9997 14.0469 16.0053C14.0554 16.0053 14.0631 16.0152 14.0702 16.0152C14.14 16.016 14.2087 15.9974 14.2686 15.9615L18.1306 13.7304V16.6614H18.1299ZM14.1366 15.1188L11.645 12.6269L18.4624 8.68364L20.9547 11.1791L14.1366 15.1188Z" fill="black"/>
</svg>
