<svg width="60" height="60" viewBox="0 0 60 60" fill="none" xmlns="http://www.w3.org/2000/svg">
<path d="M34.1667 5.00016C34.1667 3.89509 33.7277 2.83529 32.9463 2.05389C32.1649 1.27248 31.1051 0.833496 30 0.833496C28.8949 0.833496 27.8351 1.27248 27.0537 2.05389C26.2723 2.83529 25.8333 3.89509 25.8333 5.00016V25.8335H5C3.89493 25.8335 2.83512 26.2725 2.05372 27.0539C1.27232 27.8353 0.833334 28.8951 0.833334 30.0002C0.833334 31.1052 1.27232 32.165 2.05372 32.9464C2.83512 33.7278 3.89493 34.1668 5 34.1668H25.8333V55.0002C25.8333 56.1052 26.2723 57.165 27.0537 57.9464C27.8351 58.7278 28.8949 59.1668 30 59.1668C31.1051 59.1668 32.1649 58.7278 32.9463 57.9464C33.7277 57.165 34.1667 56.1052 34.1667 55.0002V34.1668H55C56.1051 34.1668 57.1649 33.7278 57.9463 32.9464C58.7277 32.165 59.1667 31.1052 59.1667 30.0002C59.1667 28.8951 58.7277 27.8353 57.9463 27.0539C57.1649 26.2725 56.1051 25.8335 55 25.8335H34.1667V5.00016Z" fill="#F3F3F3"/>
</svg>
